<svg xmlns="http://www.w3.org/2000/svg" data-name="Layer 1" viewBox="0 0 24 24"><path fill="#eb418b" d="M9,4A2.3,2.3,0,0,1,9,3.46a3.13,3.13,0,0,1,6.25,0,1.13,1.13,0,0,1,0,.19Z"/><path fill="#f38fbc" d="M12.75,3.81h0a3.07,3.07,0,0,1,1.45-.35,2.83,2.83,0,0,1,1,.19,3.11,3.11,0,0,1,1.29,5H14.2Z"/><path fill="#2d80c4" d="M7,8.67a3.81,3.81,0,0,1-.14-1,4.17,4.17,0,0,1,4.17-4.17,4.05,4.05,0,0,1,1.67.35h0a4,4,0,0,1,1.82,1.56,4.1,4.1,0,0,1,.67,2.25,3.81,3.81,0,0,1-.14,1Z"/><path fill="#bc9a7e" d="M17.51,9.84l-.07.19-.36,1-.38,1-.35,1L12.5,23.5,8,13.07l-.44-1L7.09,11l-.42-1L6.61,9.9a1,1,0,0,1,.91-1.4h9A1,1,0,0,1,17.51,9.84Z"/><path fill="#8d735f" d="M6.67 10a.45.45 0 0 1 .2 0h.66a2.38 2.38 0 0 1 1.12.27l.68.33a1.5 1.5 0 0 0 1.34 0l.23-.11a2.49 2.49 0 0 1 2.21 0l.21.09a1.49 1.49 0 0 0 1.35 0l.69-.34A2.42 2.42 0 0 1 16.47 10h.8a.47.47 0 0 1 .17 0l-.36 1h-.61a1.43 1.43 0 0 0-.66.15l-.7.35a2.48 2.48 0 0 1-2.22 0l-.21-.09a1.49 1.49 0 0 0-1.35 0l-.23.11a2.6 2.6 0 0 1-1.1.25 2.55 2.55 0 0 1-1.11-.26l-.69-.34A1.38 1.38 0 0 0 7.53 11H7.09zM7.54 12.06A.4.4 0 0 1 7.8 12a2.42 2.42 0 0 1 .85.26l.68.33a1.5 1.5 0 0 0 1.34 0l.23-.11a2.52 2.52 0 0 1 2.21 0l.21.09a1.49 1.49 0 0 0 1.35 0l.69-.34A2.42 2.42 0 0 1 16.47 12a.59.59 0 0 1 .23.05l-.35 1a1.23 1.23 0 0 0-.54.14l-.7.35a2.48 2.48 0 0 1-2.22 0l-.21-.09a1.49 1.49 0 0 0-1.35 0l-.23.11a2.6 2.6 0 0 1-1.1.25 2.55 2.55 0 0 1-1.11-.26l-.69-.34A.85.85 0 0 0 8 13.07z"/></svg>